<?xml version="1.0" encoding="UTF-8" standalone="no"?>
<!-- Generator: Adobe Illustrator 24.3.0, SVG Export Plug-In . SVG Version: 6.00 Build 0)  -->

<svg
   version="1.0"
   id="katman_1"
   x="0px"
   y="0px"
   viewBox="0 0 841.89 595.28"
   style="enable-background:new 0 0 841.89 595.28;"
   xml:space="preserve"
   sodipodi:docname="make.svg"
   inkscape:version="1.3.2 (091e20e, 2023-11-25, custom)"
   xmlns:inkscape="http://www.inkscape.org/namespaces/inkscape"
   xmlns:sodipodi="http://sodipodi.sourceforge.net/DTD/sodipodi-0.dtd"
   xmlns:xlink="http://www.w3.org/1999/xlink"
   xmlns="http://www.w3.org/2000/svg"
   xmlns:svg="http://www.w3.org/2000/svg"><defs
   id="defs19" /><sodipodi:namedview
   id="namedview19"
   pagecolor="#ffffff"
   bordercolor="#666666"
   borderopacity="1.0"
   inkscape:showpageshadow="2"
   inkscape:pageopacity="0.0"
   inkscape:pagecheckerboard="0"
   inkscape:deskcolor="#d1d1d1"
   inkscape:zoom="0.98112578"
   inkscape:cx="420.94501"
   inkscape:cy="297.10768"
   inkscape:window-width="1920"
   inkscape:window-height="1017"
   inkscape:window-x="1672"
   inkscape:window-y="-8"
   inkscape:window-maximized="1"
   inkscape:current-layer="katman_1" />
<style
   type="text/css"
   id="style1">
	.st0{clip-path:url(#SVGID_2_);}
	.st1{clip-path:url(#SVGID_4_);}
	.st2{clip-path:url(#SVGID_8_);}
	.st3{clip-path:url(#SVGID_10_);}
	.st4{clip-path:url(#SVGID_12_);}
	.st5{fill:#6C00CB;}
	.st6{clip-path:url(#SVGID_14_);}
	.st7{clip-path:url(#SVGID_16_);}
	.st8{fill:#1D1D1B;}
</style>
<g
   id="Group_7"
   style="stroke-width:4.1;stroke-dasharray:none;stroke:#ffffff;stroke-opacity:1">
	<g
   id="g6"
   style="stroke-width:4.1;stroke-dasharray:none;stroke:#ffffff;stroke-opacity:1">
		<g
   id="g5"
   style="stroke-width:4.1;stroke-dasharray:none;stroke:#ffffff;stroke-opacity:1">
			<defs
   id="defs1">
				<path
   id="SVGID_1_"
   d="M235.87,330.73h-24.49c-1.87,0-3.38-1.52-3.38-3.38c0,0,0,0,0,0v-90.42c0-1.87,1.52-3.38,3.38-3.38      c0,0,0,0,0,0h24.49c1.87,0,3.38,1.51,3.38,3.38c0,0,0,0,0,0v90.42C239.25,329.21,237.74,330.73,235.87,330.73      C235.87,330.73,235.87,330.73,235.87,330.73z M126.86,329.56l40.6-80.79c0.84-1.67,0.17-3.7-1.5-4.54l-21.88-11      c-1.67-0.84-3.7-0.17-4.54,1.5l-40.6,80.79c-0.84,1.67-0.17,3.7,1.5,4.54l21.88,11C123.99,331.89,126.02,331.22,126.86,329.56z       M186.95,329.24l17.37-88.06c0.36-1.83-0.82-3.6-2.65-3.97l-24.01-4.85c-1.83-0.37-3.62,0.82-3.99,2.65c0,0,0,0.01,0,0.01      l-17.37,88.06c-0.36,1.83,0.82,3.6,2.65,3.97l24.01,4.85c1.83,0.37,3.62-0.82,3.99-2.65      C186.95,329.25,186.95,329.25,186.95,329.24L186.95,329.24z" />
			</defs>
			<clipPath
   id="SVGID_2_">
				<use
   xlink:href="#SVGID_1_"
   style="overflow:visible;"
   id="use1" />
			</clipPath>
			<g
   id="Group_6_9_"
   class="st0"
   clip-path="url(#SVGID_2_)"
   style="stroke-width:4.1;stroke-dasharray:none;stroke:#ffffff;stroke-opacity:1">
				<g
   id="Group_5_9_"
   style="stroke-width:4.1;stroke-dasharray:none;stroke:#ffffff;stroke-opacity:1">
					<g
   id="Group_4_9_"
   style="stroke-width:4.1;stroke-dasharray:none;stroke:#ffffff;stroke-opacity:1">
						<g
   id="g4"
   style="stroke-width:4.1;stroke-dasharray:none;stroke:#ffffff;stroke-opacity:1">
							<defs
   id="defs2">
								<rect
   id="SVGID_3_"
   x="90.01"
   y="223.75"
   width="157.78"
   height="116.77" />
							</defs>
							<clipPath
   id="SVGID_4_">
								<use
   xlink:href="#SVGID_3_"
   style="overflow:visible;"
   id="use2" />
							</clipPath>
							<g
   id="Group_3_9_"
   class="st1"
   clip-path="url(#SVGID_4_)"
   style="stroke-width:4.1;stroke-dasharray:none;stroke:#ffffff;stroke-opacity:1">
								<g
   id="Group_2_9_"
   style="stroke-width:4.1;stroke-dasharray:none;stroke:#ffffff;stroke-opacity:1">
									<g
   id="g3"
   style="stroke-width:4.1;stroke-dasharray:none;stroke:#ffffff;stroke-opacity:1">
										<defs
   id="defs3">
											<rect
   id="SVGID_5_"
   x="90.01"
   y="223.75"
   width="157.78"
   height="116.77" />
										</defs>
										<clipPath
   id="SVGID_6_">
											<use
   xlink:href="#SVGID_5_"
   style="overflow:visible;"
   id="use3" />
										</clipPath>
									</g>
								</g>
							</g>
						</g>
					</g>
				</g>
			</g>
		</g>
	</g>
	<g
   id="g14"
   style="stroke-width:4.1;stroke-dasharray:none;stroke:#ffffff;stroke-opacity:1">
		<g
   id="g13"
   style="stroke-width:4.1;stroke-dasharray:none;stroke:#ffffff;stroke-opacity:1">
			<defs
   id="defs6">
				<path
   id="SVGID_7_"
   d="M235.87,330.73h-24.49c-1.87,0-3.38-1.52-3.38-3.38c0,0,0,0,0,0v-90.42c0-1.87,1.52-3.38,3.38-3.38      c0,0,0,0,0,0h24.49c1.87,0,3.38,1.51,3.38,3.38c0,0,0,0,0,0v90.42C239.25,329.21,237.74,330.73,235.87,330.73      C235.87,330.73,235.87,330.73,235.87,330.73z M126.86,329.56l40.6-80.79c0.84-1.67,0.17-3.7-1.5-4.54l-21.88-11      c-1.67-0.84-3.7-0.17-4.54,1.5l-40.6,80.79c-0.84,1.67-0.17,3.7,1.5,4.54l21.88,11C123.99,331.89,126.02,331.22,126.86,329.56z       M186.95,329.24l17.37-88.06c0.36-1.83-0.82-3.6-2.65-3.97l-24.01-4.85c-1.83-0.37-3.62,0.82-3.99,2.65c0,0,0,0.01,0,0.01      l-17.37,88.06c-0.36,1.83,0.82,3.6,2.65,3.97l24.01,4.85c1.83,0.37,3.62-0.82,3.99-2.65      C186.95,329.25,186.95,329.25,186.95,329.24L186.95,329.24z" />
			</defs>
			<use
   xlink:href="#SVGID_7_"
   style="overflow:visible;fill:#6C00CB;stroke-width:4.1;stroke-dasharray:none;stroke:#ffffff;stroke-opacity:1"
   id="use6" />
			<clipPath
   id="SVGID_8_">
				<use
   xlink:href="#SVGID_7_"
   style="overflow:visible;"
   id="use7" />
			</clipPath>
			<g
   id="Group_6_8_"
   class="st2"
   clip-path="url(#SVGID_8_)"
   style="stroke-width:4.1;stroke-dasharray:none;stroke:#ffffff;stroke-opacity:1">
				<g
   id="Group_5_8_"
   style="stroke-width:4.1;stroke-dasharray:none;stroke:#ffffff;stroke-opacity:1">
					<g
   id="Group_4_8_"
   style="stroke-width:4.1;stroke-dasharray:none;stroke:#ffffff;stroke-opacity:1">
						<g
   id="g12"
   style="stroke-width:4.1;stroke-dasharray:none;stroke:#ffffff;stroke-opacity:1">
							<defs
   id="defs7">
								<rect
   id="SVGID_9_"
   x="90.01"
   y="223.75"
   width="157.78"
   height="116.77" />
							</defs>
							<use
   xlink:href="#SVGID_9_"
   style="overflow:visible;fill:#6C00CB;stroke-width:4.1;stroke-dasharray:none;stroke:#ffffff;stroke-opacity:1"
   id="use8" />
							<clipPath
   id="SVGID_10_">
								<use
   xlink:href="#SVGID_9_"
   style="overflow:visible;"
   id="use9" />
							</clipPath>
							<g
   id="Group_3_8_"
   class="st3"
   clip-path="url(#SVGID_10_)"
   style="stroke-width:4.1;stroke-dasharray:none;stroke:#ffffff;stroke-opacity:1">
								<g
   id="Group_2_8_"
   style="stroke-width:4.1;stroke-dasharray:none;stroke:#ffffff;stroke-opacity:1">
									<g
   id="g11"
   style="stroke-width:4.1;stroke-dasharray:none;stroke:#ffffff;stroke-opacity:1">
										<defs
   id="defs9">
											<rect
   id="SVGID_11_"
   x="90.01"
   y="223.75"
   width="157.78"
   height="116.77" />
										</defs>
										<use
   xlink:href="#SVGID_11_"
   style="overflow:visible;fill:#6C00CB;stroke-width:4.1;stroke-dasharray:none;stroke:#ffffff;stroke-opacity:1"
   id="use10" />
										<clipPath
   id="SVGID_12_">
											<use
   xlink:href="#SVGID_11_"
   style="overflow:visible;"
   id="use11" />
										</clipPath>
										<g
   id="Group_1_8_"
   class="st4"
   clip-path="url(#SVGID_12_)"
   style="stroke-width:4.1;stroke-dasharray:none;stroke:#ffffff;stroke-opacity:1">
											<rect
   id="Rectangle_1_8_"
   x="89.53"
   y="222.95"
   class="st5"
   width="158.32"
   height="118.13"
   style="stroke-width:4.1;stroke-dasharray:none;stroke:#ffffff;stroke-opacity:1" />
										</g>
									</g>
								</g>
							</g>
						</g>
					</g>
				</g>
			</g>
		</g>
	</g>
	<g
   id="g19"
   style="stroke-width:4.1;stroke-dasharray:none;stroke:#ffffff;stroke-opacity:1">
		<g
   id="g18"
   style="stroke-width:4.1;stroke-dasharray:none;stroke:#ffffff;stroke-opacity:1">
			<defs
   id="defs14">
				<path
   id="SVGID_13_"
   d="M235.87,330.73h-24.49c-1.87,0-3.38-1.52-3.38-3.38c0,0,0,0,0,0v-90.42c0-1.87,1.52-3.38,3.38-3.38      c0,0,0,0,0,0h24.49c1.87,0,3.38,1.51,3.38,3.38c0,0,0,0,0,0v90.42C239.25,329.21,237.74,330.73,235.87,330.73      C235.87,330.73,235.87,330.73,235.87,330.73z M126.86,329.56l40.6-80.79c0.84-1.67,0.17-3.7-1.5-4.54l-21.88-11      c-1.67-0.84-3.7-0.17-4.54,1.5l-40.6,80.79c-0.84,1.67-0.17,3.7,1.5,4.54l21.88,11C123.99,331.89,126.02,331.22,126.86,329.56z       M186.95,329.24l17.37-88.06c0.36-1.83-0.82-3.6-2.65-3.97l-24.01-4.85c-1.83-0.37-3.62,0.82-3.99,2.65c0,0,0,0.01,0,0.01      l-17.37,88.06c-0.36,1.83,0.82,3.6,2.65,3.97l24.01,4.85c1.83,0.37,3.62-0.82,3.99-2.65      C186.95,329.25,186.95,329.25,186.95,329.24L186.95,329.24z" />
			</defs>
			<clipPath
   id="SVGID_14_">
				<use
   xlink:href="#SVGID_13_"
   style="overflow:visible;"
   id="use14" />
			</clipPath>
			<g
   id="Group_6_7_"
   class="st6"
   clip-path="url(#SVGID_14_)"
   style="stroke-width:4.1;stroke-dasharray:none;stroke:#ffffff;stroke-opacity:1">
				<g
   id="Group_5_7_"
   style="stroke-width:4.1;stroke-dasharray:none;stroke:#ffffff;stroke-opacity:1">
					<g
   id="Group_4_7_"
   style="stroke-width:4.1;stroke-dasharray:none;stroke:#ffffff;stroke-opacity:1">
						<g
   id="g17"
   style="stroke-width:4.1;stroke-dasharray:none;stroke:#ffffff;stroke-opacity:1">
							<defs
   id="defs15">
								<rect
   id="SVGID_15_"
   x="90.01"
   y="223.75"
   width="157.78"
   height="116.77" />
							</defs>
							<clipPath
   id="SVGID_16_">
								<use
   xlink:href="#SVGID_15_"
   style="overflow:visible;"
   id="use15" />
							</clipPath>
							<g
   id="Group_3_7_"
   class="st7"
   clip-path="url(#SVGID_16_)"
   style="stroke-width:4.1;stroke-dasharray:none;stroke:#ffffff;stroke-opacity:1">
								<g
   id="Group_2_7_"
   style="stroke-width:4.1;stroke-dasharray:none;stroke:#ffffff;stroke-opacity:1">
									<g
   id="g16"
   style="stroke-width:4.1;stroke-dasharray:none;stroke:#ffffff;stroke-opacity:1">
										<defs
   id="defs16">
											<rect
   id="SVGID_17_"
   x="90.01"
   y="223.75"
   width="157.78"
   height="116.77" />
										</defs>
										<clipPath
   id="SVGID_18_">
											<use
   xlink:href="#SVGID_17_"
   style="overflow:visible;"
   id="use16" />
										</clipPath>
									</g>
								</g>
							</g>
						</g>
					</g>
				</g>
			</g>
		</g>
	</g>
</g>
<path
   id="Path_2"
   class="st8"
   d="M317.09,269.98v57.46c0,1.87-1.51,3.38-3.38,3.38c0,0,0,0,0,0h-24.83c-1.87,0-3.38-1.52-3.38-3.38  c0,0,0,0,0,0v-90.74c0-1.87,1.52-3.38,3.38-3.38c0,0,0,0,0,0h24.83c1.87,0,3.38,1.51,3.38,3.38c0,0,0,0,0,0v7.15  c6.24-7.8,15.02-12.68,27.3-12.68c11.51,0,21.45,4.68,27.5,13.46c7.41-8.78,17.94-13.46,30.81-13.46  c21.84,0,36.86,12.87,36.86,37.44v58.82c0,1.87-1.51,3.38-3.38,3.38c0,0,0,0,0,0h-24.83c-1.87,0-3.38-1.51-3.38-3.38c0,0,0,0,0,0  v-52.2c0-10.73-6.05-15.99-14.24-15.99c-6.83,0-12.29,4.29-15.41,10.73v57.46c0,1.87-1.51,3.38-3.38,3.38c0,0,0,0,0,0h-24.82  c-1.87,0-3.38-1.52-3.38-3.38c0,0,0,0,0,0v-52.2c0-10.73-6.04-15.99-14.24-15.99C325.48,259.26,320.22,263.55,317.09,269.98z"
   style="fill:#ffffff" />
<path
   id="Path_3"
   class="st8"
   d="M481.08,332.78c-18.33,0-33.74-12.09-33.74-30.81c0-17.16,11.31-25.16,32.37-30.62l26.91-7.02  c-0.78-6.43-5.85-9.56-14.04-9.56c-7.26,0-12.48,2.78-14.88,8.33c-0.63,1.56-2.29,2.43-3.93,2.07l-21.33-5.07  c-1.83-0.43-2.96-2.26-2.52-4.09c0.03-0.13,0.07-0.25,0.11-0.37c6.13-16.57,23.14-25.25,43.72-25.25  c27.69,0,43.68,13.07,43.68,36.08v60.97c0,1.87-1.51,3.38-3.38,3.38c0,0,0,0,0,0h-23.54c-1.84,0-3.34-1.47-3.38-3.31l-0.12-5.08  l-0.19,0.19C498.83,329.46,491.03,332.78,481.08,332.78z M489.07,308.4c4.1,0,7.21-1.17,11.89-3.9l5.46-3.31l0.19-15.8l-14.04,3.9  c-9.56,2.73-13.84,5.07-13.84,10.53C478.74,305.87,484,308.4,489.07,308.4z"
   style="fill:#ffffff" />
<path
   id="Path_4"
   class="st8"
   d="M587.88,284.81l-9.56,8.78v33.86c0,1.87-1.51,3.38-3.38,3.38c0,0,0,0,0,0H550.7  c-1.87,0-3.38-1.51-3.38-3.38c0,0,0,0,0,0V204.72c0-1.87,1.51-3.38,3.38-3.38c0,0,0,0,0,0h24.24c1.87,0,3.38,1.51,3.38,3.38  c0,0,0,0,0,0v55.52l28.28-26.02c0.62-0.58,1.44-0.89,2.29-0.89h29.93c1.87,0,3.38,1.51,3.38,3.38c0,0.95-0.4,1.86-1.1,2.5  l-29.04,26.49l33.12,60.12c0.9,1.64,0.31,3.7-1.33,4.6c-0.5,0.28-1.06,0.42-1.63,0.42h-28.3c-1.26,0-2.42-0.7-3-1.82L587.88,284.81z  "
   style="fill:#ffffff" />
<path
   id="Path_5"
   class="st8"
   d="M690.75,332.97c-27.11,0-51.87-16.97-51.87-51.29c0-32.37,23.79-51.1,49.92-51.1  c27.11,0,46.8,18.92,47.58,48.75c0.09,3.15,0.14,5.35,0.17,6.91c0.03,1.86-1.46,3.39-3.33,3.42c-0.02,0-0.04,0-0.06,0h-63.09  c0.98,11.7,10.34,19.11,22.23,19.11c7.96,0.18,15.51-3.5,20.26-9.88c1.08-1.41,3.07-1.74,4.54-0.75l15.76,10.55  c1.56,1.06,1.97,3.19,0.91,4.75c0,0-0.01,0.01-0.01,0.01C725.33,325.9,711.41,332.97,690.75,332.97z M670.67,270.57h34.13  c-0.19-11.12-8.39-15.99-16.97-15.99C679.83,254.58,671.64,259.26,670.67,270.57L670.67,270.57z"
   style="fill:#ffffff" />

</svg>
